{
  "accessors": [
    {
      "bufferView": 0,
      "componentType": 5125,
      "count": 330,
      "type": "SCALAR"
    },
    {
      "bufferView": 1,
      "componentType": 5126,
      "count": 145,
      "max": [
        0.19999999959430348,
        0.16553690914177,
        0.024052624351279354
      ],
      "min": [
        -0.16553691327383524,
        -0.1999999948067177,
        -0.024052624351279354
      ],
      "type": "VEC3"
    },
    {
      "bufferView": 2,
      "componentType": 5126,
      "count": 145,
      "max": [
        1.0,
        0.9999999996993104,
        1.0
      ],
      "min": [
        -1.0,
        -1.0,
        -1.0
      ],
      "type": "VEC3"
    },
    {
      "bufferView": 3,
      "componentType": 5126,
      "count": 145,
      "max": [
        1.0,
        0.978062389920787
      ],
      "min": [
        0.0,
        0.0
      ],
      "type": "VEC2"
    },
    {
      "bufferView": 4,
      "componentType": 5125,
      "count": 360,
      "type": "SCALAR"
    },
    {
      "bufferView": 5,
      "componentType": 5126,
      "count": 156,
      "max": [
        0.16553689703833352,
        0.19999999480671793,
        0.02405261448463524
      ],
      "min": [
        -0.19999999959430337,
        -0.16553690182591918,
        -0.024052614484635255
      ],
      "type": "VEC3"
    },
    {
      "bufferView": 6,
      "componentType": 5126,
      "count": 156,
      "max": [
        1.0,
        1.0,
        1.0
      ],
      "min": [
        -1.0,
        -0.9999999997053313,
        -1.0
      ],
      "type": "VEC3"
    },
    {
      "bufferView": 7,
      "componentType": 5126,
      "count": 156,
      "max": [
        1.0,
        0.9845376763788961
      ],
      "min": [
        0.0,
        0.0
      ],
      "type": "VEC2"
    }
  ],
  "asset": {
    "generator": "Adobe Illustrator",
    "version": "2.0"
  },
  "bufferViews": [
    {
      "buffer": 0,
      "byteLength": 1320,
      "target": 34963
    },
    {
      "buffer": 0,
      "byteLength": 1740,
      "byteOffset": 1320,
      "target": 34962
    },
    {
      "buffer": 0,
      "byteLength": 1740,
      "byteOffset": 3060,
      "target": 34962
    },
    {
      "buffer": 0,
      "byteLength": 1160,
      "byteOffset": 4800,
      "target": 34962
    },
    {
      "buffer": 0,
      "byteLength": 1440,
      "byteOffset": 5960,
      "target": 34963
    },
    {
      "buffer": 0,
      "byteLength": 1872,
      "byteOffset": 7400,
      "target": 34962
    },
    {
      "buffer": 0,
      "byteLength": 1872,
      "byteOffset": 9272,
      "target": 34962
    },
    {
      "buffer": 0,
      "byteLength": 1248,
      "byteOffset": 11144,
      "target": 34962
    }
  ],
  "buffers": [
    {
      "byteLength": 12392,
      "uri": "data:application/octet-stream;base64,"
    }
  ],
  "materials": [
    {
      "doubleSided": true,
      "pbrMetallicRoughness": {
        "baseColorFactor": [
          0.921875,
          0.0,
          0.5468750596046448,
          1.0
        ],
        "metallicFactor": 0.0,
        "roughnessFactor": 0.4000000059604645
      }
    },
    {
      "doubleSided": true,
      "pbrMetallicRoughness": {
        "baseColorFactor": [
          0.921875,
          0.0,
          0.5468750596046448,
          1.0
        ],
        "metallicFactor": 0.0,
        "roughnessFactor": 0.4000000059604645
      }
    }
  ],
  "meshes": [
    {
      "primitives": [
        {
          "attributes": {
            "NORMAL": 2,
            "POSITION": 1,
            "TEXCOORD_0": 3
          },
          "indices": 0,
          "material": 0,
          "mode": 4
        }
      ]
    },
    {
      "primitives": [
        {
          "attributes": {
            "NORMAL": 6,
            "POSITION": 5,
            "TEXCOORD_0": 7
          },
          "indices": 4,
          "material": 1,
          "mode": 4
        }
      ]
    }
  ],
  "nodes": [
    {
      "mesh": 0
    },
    {
      "mesh": 1
    }
  ],
  "scenes": [
    {
      "nodes": [
        0,
        1
      ]
    }
  ]
}
